<?xml version="1.0" encoding="utf-8"?>
<svg fill="#eeeeee" width="20px" height="20px" viewBox="0 0 20 20" xmlns="http://www.w3.org/2000/svg">
	<path fill-rule="evenodd" d="M3 0 5 0C5.5523 0 6 .4477 6 1 6 1.5128 5.614 1.9355 5.1166 1.9933L5 2 3 2C2.4872 2 2.0645 2.386 2.0067 2.8834L2 3 2 17C2 17.5128 2.386 17.9355 2.8834 17.9933L3 18 17 18C17.5128 18 17.9355 17.614 17.9933 17.1166L18 17 18 15C18 14.4477 18.4477 14 19 14 19.5128 14 19.9355 14.386 19.9933 14.8834L20 15 20 17C20 18.5977 18.7511 19.9037 17.1763 19.9949L17 20 3 20C1.4023 20 .0963 18.7511.0051 17.1763L0 17 0 3C0 1.4023 1.2489.0963 2.8237.0051L3 0 5 0 3 0ZM19 0C19.75 0 20 .25 20 1L20 7C20 7.5523 19.5523 8 19 8 18.4477 8 18 7.5523 18 7L18 3.414 11.7071 9.7071C11.3466 10.0676 10.7794 10.0953 10.3871 9.7903L10.2929 9.7071C9.9324 9.3466 9.9047 8.7794 10.2097 8.3871L10.2929 8.2929 16.584 2 13 2C12.4477 2 12 1.5523 12 1 12 .4477 12.4477 0 13 0L19 0Z"/>
</svg>
